<svg xmlns="http://www.w3.org/2000/svg" width="1240" height="1660" viewBox="0 0 1240 1660">
  <defs>
    <linearGradient id="bg" x1="0" y1="0" x2="1" y2="1">
      <stop offset="0" stop-color="#f6faf8"/>
      <stop offset="0.55" stop-color="#e7f0ec"/>
      <stop offset="1" stop-color="#f8fbff"/>
    </linearGradient>
    <linearGradient id="brand" x1="0" y1="0" x2="1" y2="1">
      <stop offset="0" stop-color="#12805c"/>
      <stop offset="1" stop-color="#1769e0"/>
    </linearGradient>
    <filter id="shadow" x="-20%" y="-20%" width="140%" height="140%">
      <feDropShadow dx="0" dy="24" stdDeviation="28" flood-color="#142126" flood-opacity="0.16"/>
    </filter>
    <style>
      .font { font-family: Inter, 'Segoe UI', 'Microsoft YaHei', Arial, sans-serif; }
      .ink { fill: #142126; }
      .muted { fill: #5c6872; }
      .jade { fill: #12805c; }
      .blue { fill: #1769e0; }
      .small { font-size: 30px; }
      .body { font-size: 34px; }
      .label { font-size: 28px; font-weight: 700; }
      .title { font-size: 92px; font-weight: 900; letter-spacing: 0; }
      .subtitle { font-size: 40px; font-weight: 700; }
      .metric { font-size: 54px; font-weight: 900; }
    </style>
  </defs>

  <rect width="1240" height="1660" fill="url(#bg)"/>
  <path d="M84 145C238 68 386 82 520 188C612 260 714 276 826 230C956 176 1057 205 1168 322" fill="none" stroke="#12805c" stroke-opacity="0.18" stroke-width="34" stroke-linecap="round"/>
  <path d="M100 1288C245 1168 410 1182 566 1280C718 1376 835 1394 1006 1295" fill="none" stroke="#1769e0" stroke-opacity="0.16" stroke-width="36" stroke-linecap="round"/>

  <g transform="translate(88 88)">
    <rect x="0" y="0" width="98" height="98" rx="18" fill="url(#brand)" filter="url(#shadow)"/>
    <text class="font" x="49" y="62" text-anchor="middle" font-size="38" font-weight="900" fill="#fff">CS</text>
    <text class="font label jade" x="126" y="38">城市踏勘官 CityScout</text>
    <text class="font small muted" x="126" y="82">高德开放平台 Skill 创意征集赛</text>
  </g>

  <g transform="translate(88 250)">
    <text class="font title ink" x="0" y="0">不推荐去哪玩</text>
    <text class="font title ink" x="0" y="108">而是判断</text>
    <text class="font title" x="0" y="216" fill="#12805c">城市该怎么看</text>
    <text class="font subtitle muted" x="0" y="306">唤醒城市沉睡的基因</text>
  </g>

  <g transform="translate(88 670)" filter="url(#shadow)">
    <rect x="0" y="0" width="1064" height="520" rx="28" fill="#ffffff"/>
    <rect x="36" y="36" width="992" height="300" rx="20" fill="#edf4f1"/>
    <path d="M106 266C206 176 309 184 404 232C498 280 588 282 674 218C765 150 867 152 978 96" fill="none" stroke="#1769e0" stroke-width="12" stroke-linecap="round" stroke-linejoin="round"/>
    <g fill="#12805c">
      <circle cx="106" cy="266" r="16"/><circle cx="404" cy="232" r="16"/><circle cx="674" cy="218" r="16"/><circle cx="978" cy="96" r="16"/>
    </g>
    <g fill="#ffffff" stroke="#1769e0" stroke-width="8">
      <circle cx="240" cy="184" r="18"/><circle cx="548" cy="282" r="18"/><circle cx="812" cy="146" r="18"/>
    </g>
    <text class="font label ink" x="50" y="390">真实高德地图 + POI 点位 + 步行路线</text>
    <text class="font body muted" x="50" y="448">把地图线索转成可现场验证的证据路线</text>
  </g>

  <g transform="translate(88 1262)">
    <g>
      <rect x="0" y="0" width="324" height="164" rx="20" fill="#ffffff" stroke="#dce4e1"/>
      <text class="font metric blue" x="34" y="72">8</text>
      <text class="font small muted" x="34" y="124">真实 POI 线索</text>
    </g>
    <g transform="translate(370 0)">
      <rect x="0" y="0" width="324" height="164" rx="20" fill="#ffffff" stroke="#dce4e1"/>
      <text class="font metric jade" x="34" y="72">245m</text>
      <text class="font small muted" x="34" y="124">首段路线距离</text>
    </g>
    <g transform="translate(740 0)">
      <rect x="0" y="0" width="324" height="164" rx="20" fill="#ffffff" stroke="#dce4e1"/>
      <text class="font metric" x="34" y="72" fill="#a56a00">15</text>
      <text class="font small muted" x="34" y="124">路线折点</text>
    </g>
  </g>

  <g transform="translate(88 1498)">
    <rect x="0" y="0" width="1064" height="74" rx="37" fill="#142126"/>
    <text class="font small" x="532" y="48" text-anchor="middle" fill="#ffffff">地图证据 / 现场推断 / 待核实 · GitHub: kue0000/city-scout-amap-skill</text>
  </g>
</svg>
